<svg width="33" height="32" viewBox="0 0 33 32" fill="none" xmlns="http://www.w3.org/2000/svg">
<path fill-rule="evenodd" clip-rule="evenodd" d="M16.5 30.4C24.4529 30.4 30.9 23.9529 30.9 16C30.9 8.0471 24.4529 1.6 16.5 1.6C8.5471 1.6 2.1 8.0471 2.1 16C2.1 23.9529 8.5471 30.4 16.5 30.4ZM16.5 32C25.3366 32 32.5 24.8366 32.5 16C32.5 7.16344 25.3366 0 16.5 0C7.66344 0 0.5 7.16344 0.5 16C0.5 24.8366 7.66344 32 16.5 32Z" fill="white"/>
<path d="M10.0343 11.3278H8.12882C8.10598 11.8981 7.30176 12.87 6.1 12.87V14.4395C7.13269 14.4395 7.80439 14.0563 8.00545 13.746H8.09227V20.6722H10.0343V11.3278Z" fill="white"/>
<path d="M15.7518 20.8C17.8537 20.8 19.3753 19.673 19.3844 18.1582C19.3753 16.9901 18.4797 16.0365 17.3556 15.8494V15.7856C18.3335 15.5848 19.028 14.7361 19.0372 13.7141C19.028 12.2677 17.6389 11.2 15.7518 11.2C13.8509 11.2 12.4618 12.2677 12.4709 13.7141C12.4618 14.7361 13.1563 15.5848 14.1525 15.7856V15.8494C13.0101 16.0365 12.1145 16.9901 12.1236 18.1582C12.1145 19.673 13.6315 20.8 15.7518 20.8ZM15.7518 19.3491C14.8059 19.3491 14.1707 18.797 14.1799 18.003C14.1707 17.1954 14.8379 16.6114 15.7518 16.6114C16.6519 16.6114 17.3145 17.1954 17.3236 18.003C17.3145 18.797 16.6839 19.3491 15.7518 19.3491ZM15.7518 15.1741C14.9567 15.1741 14.3901 14.6586 14.3992 13.9194C14.3901 13.1939 14.9475 12.6875 15.7518 12.6875C16.5423 12.6875 17.0952 13.1939 17.1043 13.9194C17.0952 14.6586 16.5331 15.1741 15.7518 15.1741Z" fill="white"/>
<path d="M26.9 15.2471H24.6518V13.0798H23.1211V15.2471H20.8729V16.7529H23.1211V18.9202H24.6518V16.7529H26.9V15.2471Z" fill="white"/>
</svg>
