<svg width="40" height="28" viewBox="0 0 40 28" fill="none" xmlns="http://www.w3.org/2000/svg">
<g clip-path="url(#clip0_134_186)">
<path d="M0 0H40V28H0V0Z" fill="#E6273E"/>
<path d="M9.99841 0H29.9952V28H9.99841V0Z" fill="white"/>
<path d="M0 0H10V28H0V0Z" fill="#0A17A7"/>
<path d="M19.9968 8.91408L18.8112 10.7318C18.6771 10.9295 18.4359 10.911 18.1948 10.8007L17.3372 10.4356L17.9765 13.2278C18.1107 13.7379 17.6791 13.7379 17.4664 13.5173L15.9688 12.1386L15.7256 12.8386C15.7058 12.8952 15.6602 12.9437 15.598 12.9744C15.5358 13.0051 15.4615 13.0158 15.3899 13.0043L13.4961 12.6767L13.9937 14.1641C14.1 14.4945 14.1827 14.6317 13.886 14.719L13.2112 14.98L16.4706 17.1573C16.5998 17.2396 16.6651 17.388 16.6193 17.5218L16.3343 18.2918C17.456 18.1854 18.4616 18.0253 19.5847 17.9267C19.6834 17.9183 19.8495 18.0527 19.8488 18.1474L19.7 20.9681H20.2463L20.1601 18.1535C20.1594 18.0583 20.3102 17.9183 20.4089 17.9267C21.532 18.0253 22.5376 18.1854 23.6599 18.2918L23.375 17.5218C23.3539 17.4561 23.3566 17.3869 23.3829 17.3224C23.4091 17.2579 23.4577 17.2008 23.523 17.1578L26.7824 14.9794L26.1076 14.719C25.8108 14.6317 25.8935 14.495 25.9999 14.1641L26.4975 12.6767L24.6037 13.0043C24.532 13.016 24.4575 13.0054 24.3951 12.9746C24.3328 12.9439 24.2871 12.8953 24.2673 12.8386L24.0241 12.1386L22.5271 13.5173C22.3145 13.7379 21.8829 13.7379 22.017 13.2278L22.6564 10.4356L21.7988 10.8007C21.5577 10.911 21.3165 10.9295 21.1824 10.7318" fill="#E6273E"/>
</g>
<defs>
<clipPath id="clip0_134_186">
<rect width="40" height="28" fill="white"/>
</clipPath>
</defs>
</svg>
