<svg width="117" height="12" viewBox="0 0 117 12" fill="none" xmlns="http://www.w3.org/2000/svg">
<path d="M0.38636 0.876593H4.39351C6.18664 0.876593 6.81943 0.929748 7.34699 1.14255C8.34878 1.61997 8.92825 2.57615 8.92825 3.69055C8.92825 4.75179 8.6111 5.28237 7.55744 5.81295C8.10427 5.99641 8.57237 6.35197 8.88756 6.82317C9.20275 7.29446 9.34696 7.85437 9.29724 8.41419C9.29724 10.1656 7.92644 11.3332 5.92286 11.3332H0.38636V9.63499H1.17771V2.57481H0.38636V0.876593ZM3.33984 2.57615V5.12415H5.39531C5.75778 5.15161 6.11667 5.03846 6.39335 4.8093C6.67002 4.58024 6.84191 4.25393 6.87132 3.90201V3.79695C6.87132 3.10681 6.18664 2.57615 5.23675 2.57615H3.33839H3.33984ZM3.33984 6.76921V9.63499H5.55386C5.75509 9.65135 5.95767 9.62841 6.1496 9.56744C6.34154 9.50655 6.51896 9.40886 6.67134 9.28015C6.82373 9.15144 6.94801 8.99437 7.03683 8.81819C7.12564 8.6421 7.17719 8.45046 7.18844 8.25455V8.20139C7.18844 7.29979 6.45043 6.71597 5.34341 6.71597L3.33984 6.76921ZM18.0495 8.73339C17.6806 10.4833 16.2579 11.5473 14.3595 11.5473C12.1441 11.5473 10.5109 9.79455 10.5109 7.35295C10.5109 4.91135 12.1441 3.15997 14.3595 3.15997C14.9712 3.15846 15.5731 3.30877 16.1082 3.59659C16.6433 3.8845 17.0937 4.3005 17.4168 4.80495C17.9443 5.70797 18.2615 6.71597 18.2095 7.77721H12.5116C12.7235 9.84779 14.041 9.95419 14.41 9.95419C15.1479 10.0073 15.8341 9.47535 16.0445 8.78655L18.0481 8.73339H18.0495ZM16.046 6.39677C16.046 5.49517 15.3079 4.80495 14.4647 4.80495H14.4114C13.5148 4.80495 12.7768 5.49517 12.6197 6.34495L16.046 6.39677ZM24.6412 6.13215H28.2793V11.3332H27.119V9.68815C26.9086 10.0592 26.6433 10.3784 26.3277 10.6961C25.6756 11.2665 24.8324 11.5874 23.955 11.5992C21.5306 11.5992 19.6308 9.21081 19.6308 6.13215C19.6308 3.05215 21.5306 0.61197 23.9032 0.61197C25.2207 0.558814 26.381 1.30219 27.0138 2.41659V0.770192H28.1208V4.11481H26.9604C26.8557 3.65721 26.6587 3.22424 26.381 2.84077C26.1191 2.50406 25.786 2.22557 25.4041 2.02424C25.0222 1.82281 24.6004 1.70317 24.167 1.67321C22.9014 1.67321 21.003 2.78761 21.003 6.02575C21.003 8.57375 22.3723 10.4316 24.167 10.4316C25.5897 10.3784 26.75 9.31721 27.0138 7.93677C27.0671 7.67081 27.0671 7.35295 27.0671 7.08699H24.5878L24.6412 6.13215ZM37.1369 11.3864H34.8695V9.95419C34.6169 10.4351 34.2319 10.8385 33.7573 11.1195C33.2827 11.4006 32.7371 11.5482 32.1813 11.546C30.8624 11.6524 29.702 10.5912 29.5968 9.26397V9.10441C29.5968 7.56441 30.9157 6.82237 34.0796 6.50317L34.8176 6.45001V5.65339C34.8176 4.75179 34.1315 4.16797 33.0245 4.16797C31.9175 4.16797 31.338 4.53899 31.1262 5.60157H29.9139C30.0191 4.96459 30.3362 4.38077 30.8104 3.95517C31.3899 3.47775 32.1798 3.26495 32.9193 3.26495C34.5538 3.26495 35.9247 4.00841 35.9247 6.02575V10.4316H37.0316L37.1369 11.3864ZM34.8695 7.24655L34.1315 7.35295C31.707 7.67081 30.9157 8.09499 30.9157 9.10441C30.969 10.0073 31.707 10.6444 32.5503 10.6444C33.1258 10.618 33.6735 10.3961 34.0977 10.0174C34.5219 9.63863 34.7955 9.12717 34.871 8.57241V7.24655H34.8695ZM40.4594 4.85819C40.8284 4.32619 41.5145 3.21179 42.9905 3.21179C44.0456 3.21179 44.625 3.74379 44.8355 4.85819C45.046 4.48575 45.2579 4.16797 45.5735 3.85019C46.0492 3.42459 46.6287 3.15997 47.26 3.15997C48.4737 3.15997 49.1598 3.95517 49.1598 5.33561V10.3784H50.2668V11.3332H48.0528V5.76121C48.0528 4.64539 47.6824 4.11481 46.8924 4.11481C45.5216 4.11481 44.7836 5.75979 44.7836 6.34361V10.3784H45.9425V11.3332H43.6218V5.60157C43.6218 4.59357 43.2543 4.16797 42.4629 4.16797C41.2507 4.16797 40.3541 5.70797 40.3541 6.45001V10.4316H41.5145V11.3864H38.0868V10.4316H39.2471V4.27437H38.0868V3.31819H40.4074L40.4594 4.85819ZM51.479 0.39917H53.6945V5.01775C54.0116 4.43259 54.9068 3.26495 56.2775 3.26495C58.0706 3.26495 59.4415 5.12281 59.4415 7.45935C59.4415 9.63499 57.9654 11.4928 56.2775 11.4928C54.8534 11.4928 54.1687 10.538 53.6945 9.90095V11.3864H51.4272V10.4316H52.5341V1.35401H51.479V0.39917ZM53.6945 7.99001C53.6945 9.31721 54.6962 10.3784 55.9619 10.4848C57.3312 10.4848 58.1758 9.26397 58.1758 7.29979C58.1758 5.33561 57.2793 4.16797 55.9619 4.16797C54.8015 4.16797 53.6411 5.44201 53.6411 6.60957L53.6945 7.99001ZM60.1189 0.39917H62.3848V10.4316H63.44V11.3864H60.0656V10.4316H61.2245V1.30219H60.1175V0.39917H60.1189ZM71.1905 9.15757C71.0853 9.63499 70.8734 10.0073 70.5577 10.3784C70.2525 10.7444 69.8667 11.0393 69.4287 11.2414C68.9906 11.4434 68.5115 11.5475 68.0265 11.546C65.8644 11.546 64.3365 9.84779 64.3365 7.40619C64.3365 5.07099 65.8644 3.26495 67.8161 3.26495C69.7664 3.26495 71.3476 4.80495 71.3476 7.61899H65.6021C65.7073 8.78655 65.9711 9.47535 66.4972 10.0073C66.9196 10.3784 67.4471 10.5912 67.9747 10.5912C68.8698 10.5912 69.4507 10.1656 69.8716 9.21081L71.1905 9.15757ZM70.0302 6.71597C70.0302 5.97259 69.7664 5.28237 69.2388 4.69997C68.8698 4.38077 68.3955 4.16797 67.9213 4.22121C66.9196 4.27437 66.0764 4.96317 65.8126 5.91935C65.7592 6.18539 65.654 6.45135 65.654 6.71597H70.0302ZM76.1994 0.876593H78.7305L81.6307 9.68815H82.4221V11.3864H80.0494L79.3634 9.10441H75.6733L74.9872 11.3864H72.5613V9.68815H73.3526L76.1994 0.876593ZM77.465 2.84077L76.0942 7.51259H78.8358L77.465 2.84077ZM82.3168 3.37135H85.4793V4.91135H84.6894L85.7964 9.63499L87.1138 3.37135H89.1707L90.4879 9.52859L91.5435 4.91135H90.752V3.37135H93.9163V4.91135H93.2312L91.5418 11.3332H89.4331L88.1142 5.81295L86.8486 11.3332H84.7399L83.0001 4.91135H82.3139V3.37135H82.3168ZM101.404 9.84779H102.089V11.3878H99.6094V10.4316C99.0315 11.1736 98.1354 11.546 97.1852 11.546C95.604 11.546 94.3905 10.4848 94.3905 9.05117C94.3905 6.71597 97.0284 6.45001 99.558 6.23721C99.558 5.01775 99.137 4.64539 98.1354 4.64539C97.1329 4.64539 96.7642 5.12281 96.711 5.86619V5.91935L94.8124 5.86619C94.9179 4.27437 96.1836 3.26495 98.0814 3.26495C100.297 3.26495 101.456 4.27295 101.456 6.07899L101.404 9.84779ZM99.5057 7.61757C97.6612 7.77721 96.4469 7.93677 96.4469 9.05117C96.4469 9.68815 96.9743 10.1124 97.7658 10.1124C98.7142 10.1124 99.5057 9.37037 99.558 8.41419V7.61757H99.5057ZM105.826 4.64539C106.356 3.63739 106.935 3.21179 107.83 3.21179C108.147 3.21179 108.411 3.26495 108.728 3.31819V5.17597C108.415 5.1149 108.097 5.0797 107.778 5.07099C107.542 5.05775 107.306 5.08984 107.083 5.1653C106.86 5.24086 106.654 5.35837 106.478 5.51117C106.301 5.66397 106.158 5.84904 106.055 6.05579C105.952 6.26246 105.893 6.48681 105.88 6.71597V9.79455H106.83V11.3345H103.14V9.79455H103.93V4.91135H103.138V3.37135H105.828V4.64539H105.826ZM116.689 8.73339C116.32 10.4833 114.897 11.5473 112.999 11.5473C110.784 11.5473 109.15 9.79455 109.15 7.35295C109.15 4.91135 110.784 3.15997 112.999 3.15997C113.61 3.15846 114.212 3.30877 114.748 3.59659C115.283 3.8845 115.733 4.3005 116.056 4.80495C116.584 5.70797 116.901 6.71597 116.849 7.77721H111.153C111.364 9.84779 112.682 9.95419 113.051 9.95419C113.789 10.0073 114.475 9.47535 114.686 8.78655L116.689 8.73339ZM114.633 6.39677C114.633 5.49517 113.896 4.80495 113.051 4.80495H112.999C112.103 4.80495 111.364 5.49517 111.206 6.34495L114.633 6.39677Z" fill="white"/>
</svg>
