<svg width="24" height="24" viewBox="0 0 24 24" fill="none" xmlns="http://www.w3.org/2000/svg">
<path d="M15 3C17.2091 3 19 4.79086 19 7C19 7.72903 18.8049 8.41251 18.4642 9.00111L23 9V11H21V21C21 21.5523 20.5523 22 20 22H4C3.44772 22 3 21.5523 3 21V11H1V9L5.53577 9.00111C5.19504 8.41251 5 7.72903 5 7C5 4.79086 6.79086 3 9 3C10.1952 3 11.268 3.52421 12.0009 4.35526C12.732 3.52421 13.8048 3 15 3ZM13 11H11V21H13V11ZM9 5C7.89543 5 7 5.89543 7 7C7 8.05436 7.81588 8.91816 8.85074 8.99451L9 9H11V7C11 5.99835 10.2637 5.16869 9.30278 5.02277L9.14927 5.00548L9 5ZM15 5C13.9456 5 13.0818 5.81588 13.0055 6.85074L13 7V9H15C16.0543 9 16.9181 8.18412 16.9945 7.14926L17 7C17 5.89543 16.1046 5 15 5Z" fill="black"/>
</svg>
