<svg width="24" height="24" viewBox="0 0 24 24" fill="none" xmlns="http://www.w3.org/2000/svg">
<path d="M4.95249 6.94243C7.0818 6.11818 9.75194 6 12.001 6C14.25 6 16.9202 6.11818 19.0495 6.94243C20.1306 7.36094 21.1304 7.98254 21.8593 8.91561C22.5985 9.86175 23.001 11.0541 23.001 12.5C23.001 13.9701 22.4761 15.4334 21.6215 16.5424C20.7699 17.6475 19.5043 18.5 18.001 18.5C16.5761 18.5 15.3447 17.7094 14.4261 17.1196C13.7205 16.6666 12.8843 16 12.001 16C11.1177 16 10.2814 16.6666 9.57588 17.1196C8.65725 17.7094 7.42584 18.5 6.00098 18.5C4.49765 18.5 3.23206 17.6475 2.38045 16.5424C1.52587 15.4334 1.00098 13.9701 1.00098 12.5C1.00098 11.0541 1.40347 9.86175 2.14264 8.91561C2.8716 7.98254 3.87134 7.36094 4.95249 6.94243Z" fill="black"/>
</svg>
