<svg width="120" height="36" viewBox="0 0 120 36" fill="none" xmlns="http://www.w3.org/2000/svg">
<path fill-rule="evenodd" clip-rule="evenodd" d="M55.4974 18.4246C55.4974 17.3278 56.2774 16.4269 57.5541 16.4269C58.7742 16.4269 59.5969 17.2887 59.5969 18.4246C59.5969 19.5605 58.7742 20.4224 57.5541 20.4224C56.2774 20.4224 55.4974 19.5216 55.4974 18.4246ZM60.9869 18.4246V15.304H59.5116V16.0611C59.0435 15.4998 58.3343 15.1473 57.3697 15.1473C55.4688 15.1473 53.9797 16.5184 53.9797 18.4246C53.9797 20.3311 55.4688 21.7021 57.3697 21.7021C58.3343 21.7021 59.0435 21.3497 59.5116 20.7881V21.5457H60.9869V18.4246ZM110.805 18.4246C110.805 17.3278 111.586 16.4269 112.862 16.4269C114.082 16.4269 114.905 17.2887 114.905 18.4246C114.905 19.5605 114.082 20.4224 112.862 20.4224C111.586 20.4224 110.805 19.5216 110.805 18.4246ZM117.945 21.2493V21.3473H118.044C118.063 21.3482 118.081 21.3439 118.097 21.3351C118.111 21.327 118.117 21.3145 118.117 21.2975C118.118 21.2904 118.116 21.2833 118.113 21.277C118.109 21.2706 118.104 21.2652 118.097 21.2613C118.081 21.2524 118.063 21.2483 118.044 21.2493H117.945ZM118.045 21.1802C118.096 21.1802 118.136 21.1906 118.164 21.2118C118.191 21.2326 118.205 21.2616 118.205 21.2975C118.205 21.3115 118.203 21.3255 118.197 21.3384C118.191 21.3514 118.183 21.3631 118.172 21.3729C118.146 21.3942 118.112 21.407 118.077 21.4094L118.208 21.5481H118.106L117.985 21.4102H117.945V21.5481H117.86V21.1802H118.045ZM118.019 21.6745C118.063 21.6748 118.107 21.6669 118.147 21.6514C118.187 21.6358 118.224 21.6129 118.254 21.584C118.286 21.5553 118.31 21.5212 118.327 21.4837C118.343 21.4463 118.352 21.4061 118.352 21.3656C118.352 21.3228 118.343 21.2829 118.326 21.2451C118.309 21.2086 118.285 21.1754 118.254 21.1471C118.224 21.1194 118.188 21.0972 118.149 21.0817C118.108 21.0656 118.064 21.0574 118.019 21.0577C117.93 21.0571 117.844 21.0893 117.78 21.1471C117.749 21.1758 117.724 21.2099 117.707 21.2474C117.691 21.2849 117.682 21.3251 117.683 21.3656C117.682 21.4061 117.691 21.4463 117.707 21.4838C117.724 21.5213 117.749 21.5554 117.78 21.584C117.843 21.6422 117.93 21.6748 118.019 21.6745ZM118.019 20.9696C118.105 20.9694 118.189 20.9922 118.26 21.0352C118.332 21.0783 118.388 21.1396 118.423 21.2118C118.446 21.26 118.457 21.3111 118.457 21.3656C118.457 21.4201 118.446 21.4712 118.423 21.5191C118.377 21.6142 118.294 21.6896 118.19 21.7303C118.136 21.7515 118.078 21.7623 118.019 21.7618C117.961 21.7624 117.904 21.7524 117.85 21.7322C117.796 21.7121 117.747 21.6823 117.706 21.6445C117.666 21.6086 117.635 21.566 117.613 21.5191C117.59 21.4707 117.578 21.4184 117.578 21.3656C117.578 21.3111 117.59 21.26 117.613 21.2118C117.635 21.1635 117.667 21.1216 117.706 21.0856C117.747 21.0482 117.796 21.0186 117.85 20.9987C117.904 20.9788 117.961 20.9689 118.019 20.9696ZM116.295 18.4246V12.7969H114.82V16.0611C114.352 15.4998 113.643 15.1473 112.678 15.1473C110.777 15.1473 109.288 16.5184 109.288 18.4246C109.288 20.3311 110.777 21.7021 112.678 21.7021C113.643 21.7021 114.352 21.3497 114.82 20.7881V21.5457H116.295V18.4246ZM79.2858 16.3617C80.2363 16.3617 80.8463 16.9099 81.0024 17.8764H77.4843C77.6404 16.9754 78.2362 16.3617 79.2858 16.3617ZM79.3144 15.1473C77.3283 15.1473 75.9383 16.479 75.9383 18.4246C75.9383 20.4096 77.3849 21.7021 79.4136 21.7021C80.4351 21.7021 81.3711 21.4673 82.1941 20.8275L81.4705 19.8217C80.903 20.2399 80.1796 20.4748 79.4985 20.4748C78.5483 20.4748 77.6828 20.0699 77.4701 18.9471H82.506C82.5201 18.7771 82.5343 18.6076 82.5343 18.4246C82.5201 16.479 81.2154 15.1473 79.3144 15.1473ZM97.1166 18.4246C97.1166 17.3278 97.8969 16.4269 99.1736 16.4269C100.393 16.4269 101.216 17.2887 101.216 18.4246C101.216 19.5605 100.393 20.4224 99.1736 20.4224C97.8969 20.4224 97.1166 19.5216 97.1166 18.4246ZM102.606 18.4246V15.304H101.131V16.0611C100.663 15.4998 99.9538 15.1473 98.9889 15.1473C97.0883 15.1473 95.5989 16.5184 95.5989 18.4246C95.5989 20.3311 97.0883 21.7021 98.9889 21.7021C99.9538 21.7021 100.663 21.3497 101.131 20.7881V21.5457H102.606V18.4246ZM88.7899 18.4246C88.7899 20.3181 90.2226 21.7021 92.4074 21.7021C93.4286 21.7021 94.1095 21.4931 94.8469 20.9578L94.1378 19.8611C93.5844 20.2268 93.0029 20.4224 92.3646 20.4224C91.1875 20.4096 90.3221 19.6259 90.3221 18.4246C90.3221 17.2233 91.1875 16.4399 92.3646 16.4269C93.0029 16.4269 93.5844 16.6227 94.1378 16.9884L94.8469 15.8916C94.1095 15.3562 93.4286 15.1473 92.4074 15.1473C90.2226 15.1473 88.7899 16.5314 88.7899 18.4246ZM107.798 15.1473C106.947 15.1473 106.394 15.5129 106.011 16.0611V15.304H104.55V21.5457H106.025V18.0461C106.025 17.0145 106.507 16.4399 107.472 16.4399C107.77 16.4399 108.082 16.479 108.394 16.5966L108.848 15.3171C108.522 15.1995 108.096 15.1473 107.798 15.1473ZM68.2782 15.8001C67.5688 15.3692 66.59 15.1473 65.5121 15.1473C63.7955 15.1473 62.689 15.9044 62.689 17.1451C62.689 18.1637 63.512 18.7904 65.0295 18.9862L65.7248 19.0777C66.5333 19.182 66.9162 19.3777 66.9162 19.7305C66.9162 20.2135 66.3773 20.4878 65.3702 20.4878C64.3489 20.4878 63.6111 20.1875 63.1144 19.835L62.4194 20.8927C63.2282 21.4409 64.2495 21.7021 65.356 21.7021C67.3136 21.7021 68.4481 20.8533 68.4481 19.6653C68.4481 18.5683 67.5546 17.9937 66.0793 17.7979L65.3843 17.7064C64.746 17.6282 64.2353 17.5106 64.2353 17.093C64.2353 16.6357 64.7177 16.3617 65.5262 16.3617C66.3914 16.3617 67.2283 16.662 67.6398 16.8969L68.2782 15.8001ZM87.3005 15.1473C86.4494 15.1473 85.8963 15.5129 85.5131 16.0611V15.304H84.052V21.5457H85.5273V18.0461C85.5273 17.0145 86.0096 16.4399 86.9745 16.4399C87.2721 16.4399 87.5842 16.479 87.8963 16.5966L88.3503 15.3171C88.0241 15.1995 87.5984 15.1473 87.3005 15.1473ZM74.7182 15.304H72.3066V13.4106H70.8175V15.304H69.4414V16.5444H70.8175V19.391C70.8175 20.8403 71.4272 21.7021 73.1718 21.7021C73.8105 21.7021 74.548 21.5194 75.0161 21.2191L74.5907 20.0571C74.1506 20.292 73.6683 20.4096 73.2857 20.4096C72.5479 20.4096 72.3066 19.9917 72.3066 19.3647V16.5444H74.7182V15.304ZM52.6743 21.5457V17.6282C52.6743 16.1526 51.6531 15.1604 50.0076 15.1473C49.1424 15.1343 48.2486 15.3822 47.6246 16.2572C47.1565 15.5653 46.4187 15.1473 45.3833 15.1473C44.6597 15.1473 43.9505 15.3431 43.3974 16.0744V15.304H41.9219V21.5457H43.4116V18.0852C43.4116 17.0015 44.0641 16.4269 45.0712 16.4269C46.05 16.4269 46.5465 17.0145 46.5465 18.0721V21.5457H48.0359V18.0852C48.0359 17.0015 48.7167 16.4269 49.6955 16.4269C50.7026 16.4269 51.1849 17.0145 51.1849 18.0721V21.5457H52.6743Z" fill="white"/>
<path d="M23.4581 10.9933H14.3848V25.6487H23.4581V10.9933Z" fill="#FF5F00"/>
<path d="M14.9605 18.3214C14.9605 15.3438 16.516 12.7027 18.9067 10.9938C17.1497 9.7509 14.9317 9 12.5122 9C6.78008 9 2.14258 13.1688 2.14258 18.3214C2.14258 23.4741 6.78008 27.6429 12.5122 27.6429C14.9317 27.6429 17.1497 26.892 18.9067 25.6491C16.516 23.9661 14.9605 21.2991 14.9605 18.3214Z" fill="#EB001B"/>
<path d="M35.6978 18.3214C35.6978 23.4741 31.0602 27.6429 25.3282 27.6429C22.9086 27.6429 20.6907 26.892 18.9336 25.6491C21.3532 23.9402 22.8798 21.2991 22.8798 18.3214C22.8798 15.3438 21.3244 12.7027 18.9336 10.9938C20.6907 9.7509 22.9086 9 25.3282 9C31.0602 9 35.6978 13.1946 35.6978 18.3214Z" fill="#F79E1B"/>
</svg>
