<svg width="24" height="24" viewBox="0 0 24 24" fill="none" xmlns="http://www.w3.org/2000/svg">
<path fill-rule="evenodd" clip-rule="evenodd" d="M11.25 3.5C9.18767 3.5 8.5 4.58018 8.5 5.25V5.5C8.5 5.77614 8.27614 6 8 6H4.5V8.5H18V6H14.5C14.2239 6 14 5.77614 14 5.5V5.25C14 4.58018 13.3123 3.5 11.25 3.5ZM18 17.5H4.5V20H18V17.5ZM19.5 18.2273H22C22.5523 18.2273 23 17.7796 23 17.2273V11C23.4142 11 23.75 10.6642 23.75 10.25C23.75 9.83579 23.4142 9.5 23 9.5H21.5C21.0858 9.5 20.75 9.83579 20.75 10.25C20.75 10.6642 21.0858 11 21.5 11V16.2273C21.5 16.5034 21.2761 16.7273 21 16.7273H19.5V5.5C19.5 4.94772 19.0523 4.5 18.5 4.5H16.1552C15.707 4.5 15.3278 4.19071 15.0964 3.80693C14.4524 2.73915 13.0766 2 11.25 2C9.42341 2 8.04757 2.73915 7.40361 3.80693C7.17216 4.19071 6.79298 4.5 6.34481 4.5H4C3.44772 4.5 3 4.94772 3 5.5V20.5C3 21.0523 3.44772 21.5 4 21.5H18.5C19.0523 21.5 19.5 21.0523 19.5 20.5V18.2273ZM5.95455 14.25C5.6784 14.25 5.45455 14.0261 5.45455 13.75V12.25C5.45455 11.9739 5.6784 11.75 5.95455 11.75H6.45455C6.73069 11.75 6.95455 11.9739 6.95455 12.25V13.75C6.95455 14.0261 6.73069 14.25 6.45455 14.25H5.95455ZM11 14.25C10.7239 14.25 10.5 14.0261 10.5 13.75V12.25C10.5 11.9739 10.7239 11.75 11 11.75H11.5C11.7761 11.75 12 11.9739 12 12.25V13.75C12 14.0261 11.7761 14.25 11.5 14.25H11ZM16 14.25C15.7239 14.25 15.5 14.0261 15.5 13.75V12.25C15.5 11.9739 15.7239 11.75 16 11.75H16.5C16.7761 11.75 17 11.9739 17 12.25V13.75C17 14.0261 16.7761 14.25 16.5 14.25H16Z" fill="black"/>
</svg>
