<svg width="24" height="24" viewBox="0 0 24 24" fill="none" xmlns="http://www.w3.org/2000/svg">
<path fill-rule="evenodd" clip-rule="evenodd" d="M11.6622 4.91486C11.1201 4.80918 10.595 5.16295 10.4893 5.70503L7.8104 19.4463C7.70472 19.9884 8.05849 20.5135 8.60057 20.6192L18.4158 22.5327C18.9579 22.6384 19.483 22.2846 19.5887 21.7425L22.2676 8.00125C22.3733 7.45917 22.0195 6.93405 21.4774 6.82837L11.6622 4.91486ZM15.7174 10.2902L12.5864 13.2392L14.3605 17.1574L17.4916 14.2084L15.7174 10.2902Z" fill="black"/>
<path d="M1.6194 4.88148C1.10866 5.09181 0.865494 5.67628 1.07546 6.18696L6.48561 19.3245C6.54909 19.4776 6.65944 19.5952 6.79225 19.6688C6.7903 19.5326 6.80202 19.3941 6.82936 19.255L9.50807 5.51374C9.71999 4.42958 10.7698 3.722 11.8538 3.93336L13.2092 4.19764L12.1682 1.62501C11.9602 1.11091 11.3733 0.864391 10.8606 1.07563L1.6194 4.88148Z" fill="black"/>
</svg>
