<svg width="24" height="24" viewBox="0 0 24 24" fill="none" xmlns="http://www.w3.org/2000/svg">
<path d="M9.67846 1.24865C9.7067 1.57729 9.85004 2.50239 10.5696 3.5245C13.2471 2.5118 16.2236 2.47489 18.95 3.46478C16.9342 1.82159 14.467 1 12.0001 1C11.2215 1 10.4429 1.08469 9.67846 1.24865Z" fill="black"/>
<path d="M8.61876 1.53131C8.68717 2.0391 8.8982 2.96131 9.55156 3.96424C8.52573 4.46443 7.5571 5.11447 6.68149 5.91579L4.60993 3.84444C5.79936 2.76551 7.17051 1.99639 8.61876 1.53131Z" fill="black"/>
<path d="M3.84225 4.61199L5.91382 6.68335C5.11241 7.55887 4.46267 8.52741 3.96243 9.55314C2.95941 8.90021 2.03674 8.68884 1.52926 8.62079C1.99403 7.17233 2.76358 5.80131 3.84225 4.61199Z" fill="black"/>
<path d="M3.46218 18.9498C1.30012 16.2979 0.563512 12.866 1.24619 9.68025C1.57558 9.70812 2.50042 9.8518 3.52263 10.571C2.50983 13.2478 2.47255 16.224 3.46218 18.9498Z" fill="black"/>
<path d="M5.78354 21.0826C5.89864 21.1619 6.0152 21.2376 6.13248 21.3118C6.14342 21.3186 6.15433 21.3254 6.16522 21.3322L6.16547 21.3324C6.18981 21.3477 6.21409 21.3629 6.23854 21.3776C6.33591 21.4381 6.434 21.4963 6.53282 21.5532C6.60123 21.5923 6.67037 21.6306 6.73987 21.6683C6.80828 21.7059 6.87633 21.7428 6.9451 21.7787C7.07469 21.8452 7.205 21.9104 7.33676 21.9716C7.34762 21.977 7.35884 21.9824 7.37006 21.9878C8.1635 22.3545 8.99169 22.6209 9.83617 22.7888C8.47697 21.4145 7.72045 19.5426 6.43472 15.1107C5.91928 13.3329 5.17362 12.1385 4.40334 11.3332C3.32648 14.5291 3.74781 18.139 5.76797 21.0718C5.7707 21.0735 5.77342 21.0755 5.77621 21.0775C5.77771 21.0786 5.77933 21.0798 5.78088 21.0808C5.78176 21.0814 5.78264 21.0821 5.78354 21.0826Z" fill="black"/>
<path d="M22.7886 9.8374C21.4139 8.47869 19.5421 7.72188 15.1098 6.43665C13.3318 5.92089 12.1373 5.17567 11.3319 4.40547C14.5281 3.32871 18.1388 3.75 21.0718 5.77033C21.0733 5.77288 21.0751 5.77525 21.0768 5.7777L21.0791 5.78082C21.1609 5.8999 21.239 6.02006 21.3158 6.14131C21.3254 6.15669 21.335 6.17198 21.3446 6.18728C21.3542 6.20257 21.3637 6.21786 21.3733 6.23324C21.436 6.33495 21.4964 6.43701 21.5554 6.5398C21.592 6.60386 21.6278 6.66829 21.6629 6.73235C21.7027 6.80546 21.7422 6.87821 21.7802 6.95132C21.8439 7.0751 21.9058 7.19925 21.9648 7.3252C21.9664 7.32864 21.9681 7.33209 21.9698 7.33553C21.9714 7.33879 21.9729 7.34205 21.9745 7.34531C21.9794 7.3553 21.9843 7.36534 21.9891 7.37551C22.355 8.16743 22.6207 8.99445 22.7886 9.8374Z" fill="black"/>
<path d="M11.7891 22.998C13.9613 23.0392 16.1433 22.4457 18.0277 21.2118C18.0516 21.1963 18.0751 21.1807 18.099 21.1648C18.2163 21.0866 18.3325 21.0052 18.4472 20.9223L18.4807 20.8979C18.507 20.8787 18.5332 20.8597 18.5594 20.8401C18.6611 20.7645 18.7618 20.6859 18.8617 20.6063L18.8912 20.5829C18.9237 20.5572 18.9561 20.5316 18.988 20.505C19.0868 20.4243 19.1835 20.3399 19.2797 20.2549C19.2965 20.2399 19.3135 20.2252 19.3305 20.2105C19.3504 20.1933 19.3704 20.176 19.3901 20.1582L6.68314 7.4525C5.91467 8.29906 5.29859 9.23829 4.83817 10.2347C5.84372 11.1526 6.83154 12.5804 7.47766 14.8081C9.14744 20.5654 9.85798 21.6494 11.7891 22.998Z" fill="black"/>
<path d="M20.5698 18.908C20.5482 18.9352 20.5267 18.9623 20.5044 18.9892C20.4237 19.0873 20.34 19.1832 20.2557 19.2791C20.2413 19.2953 20.2271 19.3117 20.213 19.328C20.1948 19.349 20.1767 19.37 20.158 19.3906L7.4506 6.68484C8.29725 5.91681 9.23693 5.3008 10.2334 4.84005C11.1518 5.84587 12.579 6.83323 14.8073 7.47929C20.5648 9.14926 21.6489 9.85901 22.998 11.7899C23.0393 13.9612 22.4456 16.1422 21.2131 18.0257C21.202 18.0429 21.1906 18.06 21.1792 18.0771C21.1735 18.0857 21.1677 18.0942 21.1621 18.1028C21.085 18.2183 21.005 18.333 20.9232 18.4459C20.9183 18.4526 20.9135 18.4592 20.9087 18.4659C20.8856 18.4977 20.8625 18.5296 20.8388 18.561C20.7639 18.6624 20.6861 18.7619 20.6072 18.8611C20.5946 18.8767 20.5822 18.8923 20.5698 18.908Z" fill="black"/>
</svg>
