<svg width="24" height="24" viewBox="0 0 24 24" fill="none" xmlns="http://www.w3.org/2000/svg">
<path d="M2.5548 5.48009L6.75408 8.27961L10.9403 2.41884C11.2613 1.96943 11.8859 1.86534 12.3353 2.18634C12.4251 2.25048 12.5036 2.32904 12.5678 2.41884L16.7541 8.27961L20.9533 5.48009C21.4129 5.17374 22.0337 5.29791 22.3401 5.75744C22.4718 5.95506 22.5289 6.19311 22.5012 6.42898L20.858 20.3964C20.7987 20.9 20.3719 21.2796 19.8648 21.2796H3.64333C3.13625 21.2796 2.70943 20.9 2.65018 20.3964L1.00695 6.42898C0.942416 5.88048 1.33476 5.38352 1.88326 5.31899C2.11914 5.29124 2.35719 5.34835 2.5548 5.48009ZM11.7541 15.2796C12.8586 15.2796 13.7541 14.3842 13.7541 13.2796C13.7541 12.175 12.8586 11.2796 11.7541 11.2796C10.6495 11.2796 9.75413 12.175 9.75413 13.2796C9.75413 14.3842 10.6495 15.2796 11.7541 15.2796Z" fill="black"/>
</svg>
