<svg width="24" height="24" viewBox="0 0 24 24" fill="none" xmlns="http://www.w3.org/2000/svg">
<path d="M15.5 5.00015C13.567 5.00015 12 6.56715 12 8.50015C12 10.4332 13.567 12.0002 15.5 12.0002C17.433 12.0002 19 10.4332 19 8.50015C19 6.56715 17.433 5.00015 15.5 5.00015ZM10 8.50015C10 5.46258 12.4624 3.00015 15.5 3.00015C18.5376 3.00015 21 5.46258 21 8.50015C21 9.65765 20.6424 10.7317 20.0317 11.6177L22.7071 14.2931L21.2929 15.7073L18.6175 13.0319C17.7315 13.6426 16.6575 14.0002 15.5 14.0002C12.4624 14.0002 10 11.5378 10 8.50015ZM3 4.00015H8V6.00015H3V4.00015ZM3 11.0002H8V13.0002H3V11.0002ZM21 18.0002V20.0002H3V18.0002H21Z" fill="black"/>
</svg>
